<svg height="2414" width="720" xmlns="http://www.w3.org/2000/svg">
<rect height="2414" fill="#555" width="720"></rect>
<text fill="#7f7" font-family="Courier New" font-size="12" xml:space="preserve">
<tspan x="10" y="26">12 megabytes installed</tspan>
<tspan x="10" y="42"></tspan>
<tspan x="10" y="58">node_modules</tspan>
<tspan x="10" y="74">├─┬ aws-sdk@2.0.31 </tspan>
<tspan x="10" y="90">│ ├─┬ xml2js@0.2.6 </tspan>
<tspan x="10" y="106">│ │ └── sax@0.4.2 </tspan>
<tspan x="10" y="122">│ └── xmlbuilder@0.4.2 </tspan>
<tspan x="10" y="138">├─┬ chalk@1.0.0 </tspan>
<tspan x="10" y="154">│ ├── ansi-styles@2.2.1 </tspan>
<tspan x="10" y="170">│ ├── escape-string-regexp@1.0.5 </tspan>
<tspan x="10" y="186">│ ├─┬ has-ansi@1.0.3 </tspan>
<tspan x="10" y="202">│ │ ├── ansi-regex@1.1.1 </tspan>
<tspan x="10" y="218">│ │ └── get-stdin@4.0.1 </tspan>
<tspan x="10" y="234">│ ├── strip-ansi@2.0.1 </tspan>
<tspan x="10" y="250">│ └── supports-color@1.3.1 </tspan>
<tspan x="10" y="266">├─┬ commander@2.9.0 </tspan>
<tspan x="10" y="282">│ └── graceful-readlink@1.0.1 </tspan>
<tspan x="10" y="298">├─┬ concat-stream@1.4.10 </tspan>
<tspan x="10" y="314">│ ├── inherits@2.0.3 </tspan>
<tspan x="10" y="330">│ ├─┬ readable-stream@1.1.14 </tspan>
<tspan x="10" y="346">│ │ ├── core-util-is@1.0.2 </tspan>
<tspan x="10" y="362">│ │ ├── isarray@0.0.1 </tspan>
<tspan x="10" y="378">│ │ └── string_decoder@0.10.31 </tspan>
<tspan x="10" y="394">│ └── typedarray@0.0.6 </tspan>
<tspan x="10" y="410">├── errorhandler@1.5.0 </tspan>
<tspan x="10" y="426">├─┬ express@4.15.2 </tspan>
<tspan x="10" y="442">│ ├─┬ accepts@1.3.3 </tspan>
<tspan x="10" y="458">│ │ ├─┬ mime-types@2.1.15 </tspan>
<tspan x="10" y="474">│ │ │ └── mime-db@1.27.0 </tspan>
<tspan x="10" y="490">│ │ └── negotiator@0.6.1 </tspan>
<tspan x="10" y="506">│ ├── array-flatten@1.1.1 </tspan>
<tspan x="10" y="522">│ ├── content-disposition@0.5.2 </tspan>
<tspan x="10" y="538">│ ├── content-type@1.0.2 </tspan>
<tspan x="10" y="554">│ ├── cookie@0.3.1 </tspan>
<tspan x="10" y="570">│ ├── cookie-signature@1.0.6 </tspan>
<tspan x="10" y="586">│ ├── encodeurl@1.0.1 </tspan>
<tspan x="10" y="602">│ ├── escape-html@1.0.3 </tspan>
<tspan x="10" y="618">│ ├── etag@1.8.0 </tspan>
<tspan x="10" y="634">│ ├─┬ finalhandler@1.0.1 </tspan>
<tspan x="10" y="650">│ │ ├── debug@2.6.3 </tspan>
<tspan x="10" y="666">│ │ └── unpipe@1.0.0 </tspan>
<tspan x="10" y="682">│ ├── fresh@0.5.0 </tspan>
<tspan x="10" y="698">│ ├── merge-descriptors@1.0.1 </tspan>
<tspan x="10" y="714">│ ├── methods@1.1.2 </tspan>
<tspan x="10" y="730">│ ├── parseurl@1.3.1 </tspan>
<tspan x="10" y="746">│ ├── path-to-regexp@0.1.7 </tspan>
<tspan x="10" y="762">│ ├─┬ proxy-addr@1.1.4 </tspan>
<tspan x="10" y="778">│ │ ├── forwarded@0.1.0 </tspan>
<tspan x="10" y="794">│ │ └── ipaddr.js@1.3.0 </tspan>
<tspan x="10" y="810">│ ├── qs@6.4.0 </tspan>
<tspan x="10" y="826">│ ├── range-parser@1.2.0 </tspan>
<tspan x="10" y="842">│ ├─┬ send@0.15.1 </tspan>
<tspan x="10" y="858">│ │ ├── destroy@1.0.4 </tspan>
<tspan x="10" y="874">│ │ ├── http-errors@1.6.1 </tspan>
<tspan x="10" y="890">│ │ └── mime@1.3.4 </tspan>
<tspan x="10" y="906">│ ├── serve-static@1.12.1 </tspan>
<tspan x="10" y="922">│ ├── setprototypeof@1.0.3 </tspan>
<tspan x="10" y="938">│ ├── statuses@1.3.1 </tspan>
<tspan x="10" y="954">│ ├─┬ type-is@1.6.15 </tspan>
<tspan x="10" y="970">│ │ └── media-typer@0.3.0 </tspan>
<tspan x="10" y="986">│ ├── utils-merge@1.0.0 </tspan>
<tspan x="10" y="1002">│ └── vary@1.1.1 </tspan>
<tspan x="10" y="1018">├─┬ glob@3.2.11 </tspan>
<tspan x="10" y="1034">│ └─┬ minimatch@0.3.0 </tspan>
<tspan x="10" y="1050">│   ├── lru-cache@2.7.3 </tspan>
<tspan x="10" y="1066">│   └── sigmund@1.0.1 </tspan>
<tspan x="10" y="1082">├─┬ image-type@2.1.0 </tspan>
<tspan x="10" y="1098">│ ├── file-type@3.9.0 </tspan>
<tspan x="10" y="1114">│ └─┬ meow@3.7.0 </tspan>
<tspan x="10" y="1130">│   ├─┬ camelcase-keys@2.1.0 </tspan>
<tspan x="10" y="1146">│   │ └── camelcase@2.1.1 </tspan>
<tspan x="10" y="1162">│   ├── decamelize@1.2.0 </tspan>
<tspan x="10" y="1178">│   ├─┬ loud-rejection@1.6.0 </tspan>
<tspan x="10" y="1194">│   │ ├─┬ currently-unhandled@0.4.1 </tspan>
<tspan x="10" y="1210">│   │ │ └── array-find-index@1.0.2 </tspan>
<tspan x="10" y="1226">│   │ └── signal-exit@3.0.2 </tspan>
<tspan x="10" y="1242">│   ├── map-obj@1.0.1 </tspan>
<tspan x="10" y="1258">│   ├── minimist@1.2.0 </tspan>
<tspan x="10" y="1274">│   ├─┬ normalize-package-data@2.3.8 </tspan>
<tspan x="10" y="1290">│   │ ├── hosted-git-info@2.4.2 </tspan>
<tspan x="10" y="1306">│   │ ├─┬ is-builtin-module@1.0.0 </tspan>
<tspan x="10" y="1322">│   │ │ └── builtin-modules@1.1.1 </tspan>
<tspan x="10" y="1338">│   │ ├── semver@5.3.0 </tspan>
<tspan x="10" y="1354">│   │ └─┬ validate-npm-package-license@3.0.1 </tspan>
<tspan x="10" y="1370">│   │   ├─┬ spdx-correct@1.0.2 </tspan>
<tspan x="10" y="1386">│   │   │ └── spdx-license-ids@1.2.2 </tspan>
<tspan x="10" y="1402">│   │   └── spdx-expression-parse@1.0.4 </tspan>
<tspan x="10" y="1418">│   ├── object-assign@4.1.1 </tspan>
<tspan x="10" y="1434">│   ├─┬ read-pkg-up@1.0.1 </tspan>
<tspan x="10" y="1450">│   │ ├─┬ find-up@1.1.2 </tspan>
<tspan x="10" y="1466">│   │ │ ├── path-exists@2.1.0 </tspan>
<tspan x="10" y="1482">│   │ │ └─┬ pinkie-promise@2.0.1 </tspan>
<tspan x="10" y="1498">│   │ │   └── pinkie@2.0.4 </tspan>
<tspan x="10" y="1514">│   │ └─┬ read-pkg@1.1.0 </tspan>
<tspan x="10" y="1530">│   │   ├─┬ load-json-file@1.1.0 </tspan>
<tspan x="10" y="1546">│   │   │ ├── graceful-fs@4.1.11 </tspan>
<tspan x="10" y="1562">│   │   │ ├─┬ parse-json@2.2.0 </tspan>
<tspan x="10" y="1578">│   │   │ │ └─┬ error-ex@1.3.1 </tspan>
<tspan x="10" y="1594">│   │   │ │   └── is-arrayish@0.2.1 </tspan>
<tspan x="10" y="1610">│   │   │ ├── pify@2.3.0 </tspan>
<tspan x="10" y="1626">│   │   │ └─┬ strip-bom@2.0.0 </tspan>
<tspan x="10" y="1642">│   │   │   └── is-utf8@0.2.1 </tspan>
<tspan x="10" y="1658">│   │   └── path-type@1.1.0 </tspan>
<tspan x="10" y="1674">│   ├─┬ redent@1.0.0 </tspan>
<tspan x="10" y="1690">│   │ ├─┬ indent-string@2.1.0 </tspan>
<tspan x="10" y="1706">│   │ │ └─┬ repeating@2.0.1 </tspan>
<tspan x="10" y="1722">│   │ │   └─┬ is-finite@1.0.2 </tspan>
<tspan x="10" y="1738">│   │ │     └── number-is-nan@1.0.1 </tspan>
<tspan x="10" y="1754">│   │ └── strip-indent@1.0.1 </tspan>
<tspan x="10" y="1770">│   └── trim-newlines@1.0.0 </tspan>
<tspan x="10" y="1786">├── lodash@2.4.2 </tspan>
<tspan x="10" y="1802">├── map-stream@0.1.0 </tspan>
<tspan x="10" y="1818">├─┬ mkdirp@0.5.1 </tspan>
<tspan x="10" y="1834">│ └── minimist@0.0.8 </tspan>
<tspan x="10" y="1850">├─┬ morgan@1.8.1 </tspan>
<tspan x="10" y="1866">│ ├── basic-auth@1.1.0 </tspan>
<tspan x="10" y="1882">│ ├─┬ debug@2.6.1 </tspan>
<tspan x="10" y="1898">│ │ └── ms@0.7.2 </tspan>
<tspan x="10" y="1914">│ ├── depd@1.1.0 </tspan>
<tspan x="10" y="1930">│ ├─┬ on-finished@2.3.0 </tspan>
<tspan x="10" y="1946">│ │ └── ee-first@1.1.1 </tspan>
<tspan x="10" y="1962">│ └── on-headers@1.0.1 </tspan>
<tspan x="10" y="1978">├─┬ request@2.34.0 </tspan>
<tspan x="10" y="1994">│ ├── aws-sign2@0.5.0 </tspan>
<tspan x="10" y="2010">│ ├── forever-agent@0.5.2 </tspan>
<tspan x="10" y="2026">│ ├─┬ form-data@0.1.4 </tspan>
<tspan x="10" y="2042">│ │ ├── async@0.9.2 </tspan>
<tspan x="10" y="2058">│ │ ├─┬ combined-stream@0.0.7 </tspan>
<tspan x="10" y="2074">│ │ │ └── delayed-stream@0.0.5 </tspan>
<tspan x="10" y="2090">│ │ └── mime@1.2.11 </tspan>
<tspan x="10" y="2106">│ ├─┬ hawk@1.0.0 </tspan>
<tspan x="10" y="2122">│ │ ├── boom@0.4.2 </tspan>
<tspan x="10" y="2138">│ │ ├── cryptiles@0.2.2 </tspan>
<tspan x="10" y="2154">│ │ ├── hoek@0.9.1 </tspan>
<tspan x="10" y="2170">│ │ └── sntp@0.2.4 </tspan>
<tspan x="10" y="2186">│ ├─┬ http-signature@0.10.1 </tspan>
<tspan x="10" y="2202">│ │ ├── asn1@0.1.11 </tspan>
<tspan x="10" y="2218">│ │ ├── assert-plus@0.1.5 </tspan>
<tspan x="10" y="2234">│ │ └── ctype@0.5.3 </tspan>
<tspan x="10" y="2250">│ ├── json-stringify-safe@5.0.1 </tspan>
<tspan x="10" y="2266">│ ├── mime@1.2.11 </tspan>
<tspan x="10" y="2282">│ ├── node-uuid@1.4.8 </tspan>
<tspan x="10" y="2298">│ ├── oauth-sign@0.3.0 </tspan>
<tspan x="10" y="2314">│ ├── qs@0.6.6 </tspan>
<tspan x="10" y="2330">│ ├─┬ tough-cookie@2.3.2 </tspan>
<tspan x="10" y="2346">│ │ └── punycode@1.4.1 </tspan>
<tspan x="10" y="2362">│ └── tunnel-agent@0.3.0 </tspan>
<tspan x="10" y="2378">└─┬ twit@1.1.20 </tspan>
<tspan x="10" y="2394">  └── oauth@0.9.9</tspan>
</text>
</svg>
